<svg width="60" height="60" viewBox="0 0 60 60" fill="none" xmlns="http://www.w3.org/2000/svg">
<path fill-rule="evenodd" clip-rule="evenodd" d="M25.5221 2.65431C26.3427 1.22427 27.6254 0 29.5002 0C31.3751 0 32.6578 1.22432 33.4784 2.65431C34.293 4.07325 34.8273 5.96271 35.196 7.99185C35.89 11.8121 36.0724 16.5944 36.097 20.885L41.5 22.6071V18.0723C41.5 17.2403 42.172 16.5661 43.0001 16.5661C43.8283 16.5661 44.5003 17.2403 44.5003 18.0723V23.5631L49.0004 24.9977V20.7832C49.0004 19.9512 49.6718 19.277 50.5 19.277C51.3287 19.277 52.0002 19.9512 52.0002 20.7832V25.9538L53.7444 26.51C54.4922 26.748 55 27.4449 55 28.2326V32.7799C55 33.8908 54.0111 34.739 52.9178 34.565L36.0427 31.8753L35.5314 47.2781L40.5813 49.8135C40.9299 49.9885 41.2121 50.2719 41.3864 50.6218L42.6249 53.1083C43.2231 54.3095 42.3527 55.7234 41.0148 55.7234H33.303L30.9977 59.1952C30.2851 60.2683 28.7151 60.2683 28.0024 59.1952L25.6971 55.7234H17.9853C16.6474 55.7234 15.777 54.3095 16.3756 53.1083L17.6136 50.6218C17.7879 50.2719 18.0701 49.9885 18.4187 49.8135L23.4686 47.2781L22.9573 31.8753L6.08223 34.565C4.98886 34.739 4 33.8908 4 32.7799V28.2326C4 27.4449 4.50776 26.748 5.25508 26.51L6.99981 25.9538V20.7832C6.99981 19.9512 7.6713 19.277 8.49999 19.277C9.32818 19.277 9.99966 19.9512 9.99966 20.7832V24.9977L14.4997 23.5631V18.0723C14.4997 17.2403 15.1717 16.5661 15.9999 16.5661C16.8281 16.5661 17.5 17.2403 17.5 18.0723V22.6071L22.903 20.885C22.9277 16.5944 23.11 11.8121 23.8041 7.99185C24.1727 5.96271 24.7071 4.07338 25.5216 2.65431H25.5221ZM26.7561 8.53182C26.066 12.3283 25.9053 17.2765 25.9003 21.7698C25.8997 22.563 25.386 23.2533 24.6447 23.4893L7.0007 29.1131V31.3676L23.8295 28.6856C24.8988 28.5157 25.8746 29.324 25.9108 30.4101L26.4929 47.948C26.5165 48.6544 26.1283 49.309 25.499 49.6251L20.118 52.3264L19.9271 52.7096H26.3397C26.9414 52.7096 27.5034 53.0117 27.8373 53.5144L29.5003 56.0185L31.1632 53.5144C31.4972 53.0117 32.0592 52.7096 32.6608 52.7096H39.0734L38.882 52.3264L33.5015 49.6251C32.8722 49.3089 32.484 48.6544 32.5076 47.948L33.0897 30.4101C33.1258 29.3239 34.1017 28.5156 35.171 28.6856L51.9998 31.3676V29.1131L34.3558 23.4893C33.6146 23.2533 33.1008 22.563 33.1003 21.7698C33.0952 17.276 32.9345 12.3277 32.2445 8.53182C31.8974 6.62067 31.4379 5.13164 30.8789 4.15793C30.3269 3.19532 29.8573 3.01177 29.5002 3.01177C29.1431 3.01177 28.6735 3.19532 28.1215 4.15793C27.5625 5.13164 27.103 6.62067 26.756 8.53182H26.7561Z" fill="#2F2F2F"/>
</svg>
