<svg width="40" height="40" viewBox="0 0 40 40" fill="none" xmlns="http://www.w3.org/2000/svg">
<path d="M26.2855 5H13.7145C8.90932 5 5 8.90932 5 13.7145V26.2855C5 31.0907 8.90932 35 13.7145 35H26.2855C31.0907 35 35 31.0907 35 26.2855V13.7145C35 8.90932 31.0907 5 26.2855 5ZM32.6562 26.2855C32.6562 29.7983 29.7983 32.6562 26.2855 32.6562H13.7145C10.2017 32.6562 7.34375 29.7983 7.34375 26.2855V13.7145C7.34375 10.2017 10.2017 7.34375 13.7145 7.34375H26.2855C29.7983 7.34375 32.6562 10.2017 32.6562 13.7145V26.2855Z" fill="#2F2F2F"/>
<path d="M20 11.9141C15.5414 11.9141 11.9141 15.5414 11.9141 20C11.9141 24.4586 15.5414 28.0859 20 28.0859C24.4586 28.0859 28.0859 24.4586 28.0859 20C28.0859 15.5414 24.4586 11.9141 20 11.9141ZM20 25.7422C16.8338 25.7422 14.2578 23.1662 14.2578 20C14.2578 16.8338 16.8338 14.2578 20 14.2578C23.1662 14.2578 25.7422 16.8338 25.7422 20C25.7422 23.1662 23.1662 25.7422 20 25.7422Z" fill="#2F2F2F"/>
<path d="M28.2031 12.9688C28.8503 12.9688 29.375 12.4441 29.375 11.7969C29.375 11.1497 28.8503 10.625 28.2031 10.625C27.5559 10.625 27.0312 11.1497 27.0312 11.7969C27.0312 12.4441 27.5559 12.9688 28.2031 12.9688Z" fill="#2F2F2F"/>
</svg>
