<svg width="40" height="40" viewBox="0 0 40 40" fill="none" xmlns="http://www.w3.org/2000/svg">
<path d="M15.5508 29.9972C15.4317 29.9851 15.3182 29.9287 15.2249 29.8353C15.1316 29.7419 15.0627 29.6158 15.0272 29.4731C14.9916 29.3304 14.9909 29.1777 15.0253 29.0345C15.0596 28.8914 15.1274 28.7643 15.2199 28.6696L23.4686 19.9934L15.2199 11.325C15.1596 11.2614 15.1099 11.1836 15.0737 11.096C15.0374 11.0084 15.0153 10.9128 15.0087 10.8145C15.002 10.7162 15.0109 10.6173 15.0348 10.5233C15.0587 10.4293 15.0972 10.3422 15.148 10.2668C15.1988 10.1914 15.2611 10.1293 15.3311 10.0839C15.4012 10.0386 15.4777 10.011 15.5562 10.0027C15.6348 9.99435 15.7139 10.0055 15.7891 10.0354C15.8642 10.0653 15.9339 10.1134 15.9942 10.177L24.7862 19.4233C24.8532 19.4937 24.907 19.5816 24.9439 19.6807C24.9809 19.7799 25 19.8879 25 19.9973C25 20.1067 24.9809 20.2148 24.9439 20.3139C24.907 20.4131 24.8532 20.5009 24.7862 20.5713L15.9942 29.8176C15.9336 29.8831 15.8632 29.9327 15.787 29.9635C15.7109 29.9944 15.6306 30.0058 15.5508 29.9972Z" fill="#A0A9BC"/>
</svg>
