<svg width="60" height="60" viewBox="0 0 60 60" fill="none" xmlns="http://www.w3.org/2000/svg">
<path d="M29.5 7C25.0499 7 20.6998 8.3196 16.9997 10.7919C13.2996 13.2643 10.4157 16.7783 8.71272 20.8896C7.00975 25.001 6.56417 29.525 7.43234 33.8895C8.30051 38.2541 10.4434 42.2632 13.5901 45.4099C16.7368 48.5566 20.7459 50.6995 25.1105 51.5677C29.475 52.4358 33.9991 51.9903 38.1104 50.2873C42.2217 48.5843 45.7357 45.7004 48.2081 42.0003C50.6804 38.3002 52 33.9501 52 29.5C52 29.2348 51.8947 28.9804 51.7071 28.7929C51.5196 28.6054 51.2652 28.5 51 28.5C50.8636 28.4992 50.7285 28.5262 50.603 28.5795C50.4774 28.6328 50.3641 28.7113 50.27 28.81C50.1731 28.905 50.0965 29.0187 50.0449 29.1442C49.9934 29.2697 49.9679 29.4043 49.97 29.54C49.977 32.3726 49.3937 35.1755 48.2574 37.7702C47.121 40.3649 45.4565 42.6943 43.37 44.61C41 37.09 35.65 32.06 29.5 32.06C23.35 32.06 18 37.09 15.64 44.57C13.2745 42.3949 11.4546 39.6932 10.3278 36.6838C9.20088 33.6744 8.79873 30.4418 9.15386 27.248C9.509 24.0542 10.6114 20.989 12.3719 18.3006C14.1323 15.6122 16.5012 13.3763 19.2868 11.774C22.0723 10.1717 25.1961 9.24801 28.405 9.07784C31.614 8.90766 34.818 9.49575 37.7573 10.7945C40.6967 12.0932 43.2888 14.066 45.3237 16.5531C47.3586 19.0402 48.7791 21.9717 49.47 25.11C49.4982 25.2414 49.5525 25.3659 49.6298 25.4758C49.7071 25.5858 49.8058 25.679 49.92 25.75C50.0876 25.88 50.2923 25.9534 50.5043 25.9595C50.7164 25.9655 50.9249 25.904 51.0997 25.7838C51.2745 25.6635 51.4065 25.4908 51.4767 25.2906C51.5468 25.0904 51.5515 24.873 51.49 24.67C50.3852 19.6606 47.6033 15.1785 43.6045 11.9653C39.6058 8.75205 34.6298 7.00035 29.5 7ZM29.5 14.67C28.0839 14.67 26.6996 15.0899 25.5221 15.8767C24.3447 16.6634 23.427 17.7817 22.885 19.09C22.3431 20.3983 22.2013 21.8379 22.4776 23.2268C22.7539 24.6158 23.4358 25.8915 24.4371 26.8929C25.4385 27.8942 26.7143 28.5762 28.1032 28.8524C29.4921 29.1287 30.9317 28.9869 32.24 28.445C33.5483 27.9031 34.6666 26.9853 35.4533 25.8079C36.2401 24.6304 36.66 23.2461 36.66 21.83C36.6547 19.9327 35.8987 18.1146 34.5571 16.7729C33.2154 15.4313 31.3973 14.6753 29.5 14.67V14.67ZM29.5 16.67C30.5107 16.67 31.4986 16.9697 32.339 17.5312C33.1793 18.0927 33.8343 18.8908 34.221 19.8245C34.6078 20.7582 34.709 21.7857 34.5118 22.7769C34.3147 23.7682 33.828 24.6787 33.1133 25.3933C32.3987 26.108 31.4882 26.5946 30.4969 26.7918C29.5057 26.989 28.4782 26.8878 27.5445 26.501C26.6108 26.1143 25.8127 25.4593 25.2512 24.619C24.6897 23.7786 24.39 22.7907 24.39 21.78C24.3979 20.4318 24.9405 19.1418 25.8985 18.1931C26.8565 17.2445 28.1518 16.7147 29.5 16.72V16.67ZM29.5 34.05C34.72 34.05 39.58 38.58 41.63 45.93C38.1114 48.5088 33.8624 49.8991 29.5 49.8991C25.1376 49.8991 20.8887 48.5088 17.37 45.93C19.42 38.63 24.28 34.1 29.5 34.1V34.05Z" fill="black" stroke="black" stroke-width="1.5" stroke-miterlimit="10"/>
</svg>
