<svg width="40" height="40" viewBox="0 0 40 40" fill="none" xmlns="http://www.w3.org/2000/svg">
<path d="M24.4492 29.9972C24.5683 29.9851 24.6818 29.9287 24.7751 29.8353C24.8684 29.7419 24.9373 29.6158 24.9728 29.4731C25.0084 29.3304 25.0091 29.1777 24.9747 29.0345C24.9404 28.8914 24.8726 28.7643 24.7801 28.6696L16.5314 19.9934L24.7801 11.325C24.8404 11.2614 24.8901 11.1836 24.9263 11.096C24.9626 11.0084 24.9847 10.9128 24.9913 10.8145C24.998 10.7162 24.9891 10.6173 24.9652 10.5233C24.9413 10.4293 24.9028 10.3422 24.852 10.2668C24.8012 10.1914 24.7389 10.1293 24.6689 10.0839C24.5988 10.0386 24.5223 10.011 24.4438 10.0027C24.3652 9.99435 24.2861 10.0055 24.2109 10.0354C24.1358 10.0653 24.0661 10.1134 24.0058 10.177L15.2138 19.4233C15.1468 19.4937 15.093 19.5816 15.0561 19.6807C15.0191 19.7799 15 19.8879 15 19.9973C15 20.1067 15.0191 20.2148 15.0561 20.3139C15.093 20.4131 15.1468 20.5009 15.2138 20.5713L24.0058 29.8176C24.0664 29.8831 24.1368 29.9327 24.213 29.9635C24.2891 29.9944 24.3694 30.0058 24.4492 29.9972Z" fill="#A0A9BC"/>
</svg>
