<svg width="40" height="40" viewBox="0 0 40 40" fill="none" xmlns="http://www.w3.org/2000/svg">
<path d="M18.2203 23.9989C18.1727 23.994 18.1273 23.9715 18.09 23.9341C18.0526 23.8968 18.0251 23.8463 18.0109 23.7892C17.9966 23.7322 17.9964 23.6711 18.0101 23.6138C18.0238 23.5565 18.051 23.5057 18.088 23.4679L21.3875 19.9974L18.088 16.53C18.0638 16.5046 18.044 16.4734 18.0295 16.4384C18.015 16.4034 18.0061 16.3651 18.0035 16.3258C18.0008 16.2865 18.0043 16.2469 18.0139 16.2093C18.0235 16.1717 18.0389 16.1369 18.0592 16.1067C18.0795 16.0766 18.1044 16.0517 18.1324 16.0336C18.1605 16.0155 18.1911 16.0044 18.2225 16.0011C18.2539 15.9977 18.2856 16.0022 18.3156 16.0142C18.3457 16.0261 18.3736 16.0454 18.3977 16.0708L21.9145 19.7693C21.9413 19.7975 21.9628 19.8326 21.9776 19.8723C21.9923 19.912 22 19.9552 22 19.9989C22 20.0427 21.9923 20.0859 21.9776 20.1256C21.9628 20.1652 21.9413 20.2004 21.9145 20.2285L18.3977 23.927C18.3734 23.9532 18.3453 23.9731 18.3148 23.9854C18.2844 23.9977 18.2522 24.0023 18.2203 23.9989Z" fill="#A0A9BC"/>
</svg>
