<svg width="60" height="60" viewBox="0 0 60 60" fill="none" xmlns="http://www.w3.org/2000/svg">
<path d="M7.76215 57H45.1212C47.1819 56.9921 49.1783 56.2988 50.7803 55.0337C52.3827 53.7691 53.4951 52.0088 53.9343 50.0435L57.7998 32.4435C58.3703 29.8452 57.7072 27.1346 55.9956 25.0676C54.284 23.0011 51.707 21.8 48.9846 21.8H39.3172V10.4257C39.3147 8.19181 38.4045 6.05026 36.786 4.47054C35.1676 2.89081 32.9734 2.00239 30.6848 2H30.6641C28.7715 2.00246 26.932 2.61139 25.4283 3.73297C23.9239 4.85458 22.8388 6.42653 22.3382 8.20865L17.3095 26.1996H7.76187C5.96824 26.1996 4.24866 26.895 2.98026 28.1325C1.7124 29.3705 1 31.0489 1 32.7996V50.3996C1 52.1503 1.7124 53.8287 2.98026 55.0668C4.24862 56.3043 5.96824 56.9996 7.76187 56.9996L7.76215 57ZM26.6954 9.3656C26.9339 8.51556 27.4511 7.76563 28.1681 7.22997C28.885 6.69421 29.7619 6.403 30.6646 6.40005H30.6852C31.7785 6.40103 32.827 6.82581 33.6003 7.58058C34.3736 8.33536 34.8087 9.35881 34.8097 10.4259V24.0005C34.8097 24.5839 35.0472 25.1437 35.4698 25.5562C35.8924 25.9687 36.466 26.2005 37.0637 26.2005H48.9851C50.3465 26.2 51.635 26.8006 52.4913 27.8338C53.3471 28.8675 53.6792 30.2229 53.3939 31.5222L49.5285 49.1222H49.5279C49.3086 50.1049 48.7527 50.9848 47.9512 51.6174C47.1502 52.2499 46.152 52.5966 45.1217 52.6005H21.2864V28.6947L26.6954 9.3656ZM5.50819 32.8C5.50819 32.2166 5.74567 31.6568 6.16828 31.2443C6.59089 30.8318 7.16445 30.6 7.76215 30.6H16.778V52.6H7.76215C7.16445 52.6 6.59089 52.3682 6.16828 51.9557C5.74567 51.5432 5.50819 50.9834 5.50819 50.4V32.8Z" fill="#FFCD00"/>
</svg>
