<svg width="60" height="60" viewBox="0 0 60 60" fill="none" xmlns="http://www.w3.org/2000/svg">
<path d="M52.9996 19.6243C52.994 19.2405 52.8372 18.875 52.563 18.6068L34.2942 0.436515C34.0257 0.162235 33.6591 0.00558087 33.2753 0H15.0065C12.8828 0 10.8464 0.842607 9.34507 2.34176C7.84377 3.84145 7 5.87497 7 7.99518V50.0048C7 52.125 7.8438 54.1586 9.34507 55.6582C10.8464 57.1574 12.8828 58 15.0065 58H44.9935C47.1172 58 49.1536 57.1574 50.6549 55.6582C52.1562 54.1586 53 52.125 53 50.0048L52.9996 19.6243ZM34.8764 5.08808L47.9048 18.098H40.699C39.1546 18.098 37.6737 17.4855 36.5815 16.395C35.4894 15.3045 34.8762 13.8256 34.8762 12.2834L34.8764 5.08808ZM50.0883 50.005C50.0883 51.3545 49.5516 52.6484 48.5962 53.6026C47.6407 54.5567 46.3451 55.0925 44.9935 55.0925H15.0065C13.6551 55.0925 12.3594 54.5566 11.4038 53.6026C10.4483 52.6484 9.91178 51.3546 9.91178 50.005V7.99532C9.91178 6.64579 10.4484 5.35193 11.4038 4.39774C12.3593 3.44359 13.655 2.90777 15.0065 2.90777H31.9652V12.2834C31.9652 14.5967 32.8851 16.8148 34.523 18.4509C36.1613 20.0865 38.3825 21.0051 40.6993 21.0051H50.0881L50.0883 50.005Z" fill="#2F2F2F"/>
<rect x="14" y="27" width="32" height="3" rx="1.5" fill="#2F2F2F"/>
<rect x="14" y="39" width="32" height="3" rx="1.5" fill="#2F2F2F"/>
<rect x="14" y="33" width="32" height="3" rx="1.5" fill="#2F2F2F"/>
</svg>
