<svg width="60" height="60" viewBox="0 0 60 60" fill="none" xmlns="http://www.w3.org/2000/svg">
<path d="M52.2931 12.5184H42.6364V10.4093C42.6364 7.14047 39.9834 4.5 36.7067 4.5H23.2926C20.0161 4.5 17.3629 7.14034 17.3629 10.4093V12.5184H7.70714C3.72795 12.5184 0.5 15.7314 0.5 19.7003V47.3181V47.3182C0.500479 51.2869 3.72777 54.5 7.70714 54.5H52.2929C56.272 54.5 59.5 51.2871 59.5 47.3181V19.7003C59.5 15.7316 56.2727 12.5184 52.2933 12.5184H52.2931ZM21.558 12.5184V12.391H21.5575V10.4093C21.5575 9.47798 22.354 8.68178 23.2934 8.68178H36.7075C37.6469 8.68178 38.4434 9.47798 38.4434 10.4093V12.5184H21.558ZM55.3063 47.3179C55.3063 48.9492 53.935 50.318 52.293 50.318H7.70725C6.0652 50.318 4.69393 48.9492 4.69393 47.3179L4.69438 19.7001C4.69438 18.0688 6.06565 16.7 7.7077 16.7H52.2934C53.9355 16.7 55.3067 18.0688 55.3067 19.7001L55.3063 47.3179Z" fill="#FFCD00" stroke="#FFCD00"/>
</svg>
