<svg width="60" height="60" viewBox="0 0 60 60" fill="none" xmlns="http://www.w3.org/2000/svg">
<path d="M30.5 2.00025C22.9417 2.00025 15.6927 5.00302 10.3473 10.3475C5.00266 15.6927 2 22.9418 2 30.5001C2 38.0584 5.00279 45.3073 10.3473 50.6527C15.6925 55.9973 22.9417 59 30.5 59C38.0583 59 45.3073 55.9972 50.6527 50.6527C55.9973 45.3076 59 38.0584 59 30.5001C58.9908 22.9442 55.9852 15.7004 50.6425 10.3574C45.2998 5.01478 38.0556 2.00916 30.4997 2L30.5 2.00025ZM30.5 54.8415C24.0444 54.8415 17.8537 52.2772 13.288 47.7121C8.72267 43.1472 6.15851 36.9562 6.15851 30.5001C6.15851 24.0441 8.72279 17.8539 13.288 13.2882C17.8528 8.72289 24.0439 6.15874 30.5 6.15874C36.9561 6.15874 43.1463 8.72301 47.712 13.2882C52.2773 17.853 54.8415 24.0441 54.8415 30.5001C54.8342 36.9533 52.2671 43.1402 47.7042 47.7034C43.1409 52.2662 36.9536 54.8333 30.5009 54.8406L30.5 54.8415Z" fill="#FFCD00"/>
<path d="M39.9924 29.9846H31.0019V17.9979C31.0019 17.2844 30.6204 16.6248 30.0012 16.2676C29.3825 15.9108 28.6194 15.9108 28.0007 16.2676C27.3815 16.6248 27 17.2844 27 17.9979V32.0026C27 32.5321 27.2107 33.0403 27.5862 33.4152C27.9612 33.7896 28.4701 34 29.001 34H39.999C40.7141 34 41.3743 33.6196 41.732 33.0013C42.0893 32.383 42.0893 31.6216 41.732 31.0034C41.3743 30.3856 40.7141 30.0047 39.999 30.0047L39.9924 29.9846Z" fill="#FFCD00"/>
</svg>
