<svg width="40" height="40" viewBox="0 0 40 40" fill="none" xmlns="http://www.w3.org/2000/svg">
<path d="M31.4844 5H8.51562C6.577 5 5 6.577 5 8.51562V31.4844C5 33.423 6.577 35 8.51562 35H31.4844C33.423 35 35 33.423 35 31.4844V8.51562C35 6.577 33.423 5 31.4844 5ZM32.6562 31.4844C32.6562 32.1305 32.1305 32.6562 31.4844 32.6562H23.4765V21.4454H26.9141C27.5613 21.4454 28.0859 20.9208 28.0859 20.2735C28.0859 19.6262 27.5613 19.1016 26.9141 19.1016H23.4765V17.6954C23.4765 15.7998 25.0187 14.2578 26.9141 14.2578C27.5613 14.2578 28.0859 13.7332 28.0859 13.0859C28.0859 12.4387 27.5613 11.9141 26.9141 11.9141C23.7262 11.9141 21.1327 14.5075 21.1327 17.6954V19.1016H18.8476C18.2003 19.1016 17.6757 19.6262 17.6757 20.2735C17.6757 20.9208 18.2003 21.4454 18.8476 21.4454H21.1327V32.6562H8.51562C7.86949 32.6562 7.34375 32.1305 7.34375 31.4844V8.51562C7.34375 7.86949 7.86949 7.34375 8.51562 7.34375H31.4844C32.1305 7.34375 32.6562 7.86949 32.6562 8.51562V31.4844Z" fill="#2F2F2F"/>
</svg>
