<svg width="60" height="60" viewBox="0 0 60 60" fill="none" xmlns="http://www.w3.org/2000/svg">
<path d="M29.3951 0.75L29.4018 0.756608C21.8608 0.910691 14.6616 3.97321 9.31703 9.31745L9.49381 9.49423L9.31703 9.31745C3.83157 14.8029 0.75 22.2431 0.75 30.0002C0.75 37.7574 3.83157 45.1974 9.31703 50.683C14.8025 56.1685 22.2428 59.25 30 59.25C37.7572 59.25 45.1973 56.1685 50.683 50.683C56.1684 45.1976 59.25 37.7574 59.25 30.0002C59.25 24.866 57.8985 19.8218 55.3315 15.3748L55.3315 15.3747C52.7642 10.9284 49.0714 7.23577 44.6251 4.66844L44.6251 4.66843C40.1783 2.10148 35.1341 0.75 29.9995 0.75H29.3951ZM47.6426 28.2998C47.341 19.2604 44.6877 11.4155 40.6176 6.43249C44.7702 8.29424 48.3643 11.2226 51.0288 14.9279C53.8495 18.8503 55.5135 23.4833 55.8346 28.2998H47.6426ZM31.6999 31.7007H44.2408C43.9934 37.9898 42.5092 43.6541 40.234 47.9154C37.9908 52.1167 35.0001 54.9185 31.6994 55.6632L31.6999 31.7007ZM8.98912 14.9214L8.98914 14.9214C11.6613 11.2151 15.2644 8.28872 19.4257 6.43237C15.3431 11.4152 12.6999 19.2623 12.3582 28.3011H4.16541C4.49037 23.4796 6.16055 18.8436 8.98912 14.9214ZM12.4299 31.7019C12.7313 40.7398 15.3715 48.5841 19.4516 53.5676C15.3002 51.7057 11.7075 48.778 9.04375 45.0738C6.22353 41.1514 4.55951 36.5184 4.23803 31.7019H12.4299ZM50.9852 45.0724C48.3207 48.7775 44.7271 51.706 40.5742 53.5678C44.6441 48.5852 47.2974 40.7396 47.599 31.7007H55.7909C55.4699 36.5175 53.8059 41.1504 50.9852 45.0724L51.1881 45.2184L50.9852 45.0724ZM19.7655 12.0851C22.0086 7.88402 24.9991 5.08227 28.2996 4.33744V28.2998H15.7587C16.0061 22.0107 17.4903 16.3464 19.7655 12.0851ZM28.2996 31.7006V55.6656C24.9995 54.9487 22.0089 52.1644 19.7655 47.9641C17.4902 43.7041 16.0059 38.0249 15.7586 31.6995L28.2996 31.7006ZM31.6999 28.3011V4.33867C35.0004 5.08333 37.9909 7.88519 40.234 12.0864C42.5092 16.3478 43.9933 22.0121 44.2408 28.3011H31.6999Z" fill="#FFCD00" stroke="#FFCD00" stroke-width="0.5"/>
</svg>
