<svg width="178" height="92" viewBox="0 0 178 92" fill="none" xmlns="http://www.w3.org/2000/svg">
<path fill-rule="evenodd" clip-rule="evenodd" d="M64.7954 30.5296C64.418 30.2636 64.3576 29.6344 64.1764 28.9264C62.3649 21.8098 60.2024 14.0939 58.2663 6.96225C58.2097 6.745 57.5115 3.72979 57.2511 3.59121C56.066 3.37771 52.1335 3.56499 50.6277 3.56499C43.0117 3.56499 44.0156 2.9582 43.4117 5.25051L40.2189 17.1278C39.8415 18.5923 36.8223 30.2187 36.4902 30.5633C36.1354 29.6194 35.7995 28.2934 35.4863 27.2522C34.6635 24.5254 28.41 3.99199 28.1383 3.59121H10.0003C9.96256 4.16428 13.495 14.2624 13.9894 15.7157C15.1896 19.274 25.9003 51.4675 26.2739 51.9282H43.574C43.9212 51.3663 49.1709 31.3948 50.1144 28.0537L50.4201 26.8514C50.4384 26.7711 50.4689 26.694 50.5107 26.6229C50.8692 25.9337 55.0659 42.6054 55.832 45.4857L57.436 51.4525C57.4517 51.5306 57.4811 51.6054 57.5228 51.6735C57.5505 51.7471 57.5943 51.8136 57.6511 51.8682C57.821 51.9469 73.9398 52.0668 74.9475 51.8982C75.3702 51.6735 78.5554 40.8749 79.2499 39.4666C79.582 39.6576 80.7029 41.4705 80.9633 41.8263C90.1681 54.5201 110.34 58.1309 123.161 48.6171C123.538 48.3436 124.044 47.8417 124.402 47.7256C125.259 48.1938 126.067 48.7557 127.044 49.2613C133.769 52.8121 144.435 54.2242 151.768 53.1867C160.825 51.8982 168.751 46.1787 167.943 36.1068C166.785 21.9109 145.952 23.6152 142.51 19.8958C142.315 19.7089 142.169 19.4784 142.082 19.2238C141.995 18.9691 141.971 18.6975 142.012 18.4318C142.053 18.166 142.157 17.9137 142.316 17.696C142.474 17.4783 142.683 17.3015 142.925 17.1803C145.401 15.9592 151.077 17.1016 153.625 18.0455C154.62 18.3906 155.587 18.8127 156.515 19.3077L159.176 20.8996C159.527 20.615 166.26 11.3521 166.396 10.9813C164.207 9.05978 161.052 7.44169 158.278 6.46034C152.021 4.25043 142.469 3.86463 136.117 5.97715C130.124 7.96981 129.025 10.4719 128.191 10.8464C127.973 10.588 127.72 10.161 127.52 9.88756C119.843 -0.746198 104.287 -2.30062 92.9005 2.83085C91.7117 3.36647 91.8362 3.60994 90.2889 3.5987C84.9222 3.56499 79.197 3.68859 73.9247 3.5987C72.7925 3.5987 73.1699 3.32902 72.483 5.4715C70.8979 10.4382 69.4638 15.4385 67.8636 20.4539C67.3806 21.9521 64.9652 29.5857 64.8255 30.5483L64.7954 30.5296ZM122.613 45.8266C107.944 56.112 93.7874 50.5123 85.8167 42.8039C82.9597 39.4328 81.1293 36.309 80.182 31.6645C79.3805 27.8077 79.5247 23.8162 80.6025 20.0264C81.6803 16.2365 83.6602 12.7592 86.3752 9.88756C93.61 2.31021 105.687 0.54978 115.854 3.96577C119.855 5.31044 124.414 8.77886 126.353 12.5469C126.353 12.5469 125.089 13.5245 124.625 13.8579C121.058 16.4086 117.077 19.1017 113.593 21.6675C112.861 22.2106 112.107 22.7125 111.389 23.2144L109.125 24.7126C109.212 24.0759 110.423 21.5588 110.755 20.8697C111.763 18.7646 113.148 16.0715 110.348 15.6558C109.333 15.506 108.868 15.3711 108.291 16.0041C107.159 17.2552 105.566 19.2328 104.517 20.3116C103.977 20.8659 101.12 24.4317 100.686 24.5815C99.8825 24.8512 96.9576 24.4954 95.5989 24.87C94.3573 25.2146 93.1005 26.327 93.3345 27.9039C93.6855 30.2861 96.9802 30.5258 98.9956 30.4884C100.694 30.4584 100.441 30.1138 101.041 30.8629L104.683 35.3164C104.921 35.5786 105.008 35.691 105.283 36.0318C106.011 36.8896 107.891 39.2456 108.506 39.4853C109.121 39.725 110.344 39.4853 110.872 39.2343C113.733 37.8747 109.133 31.8368 108.77 29.8703C109.227 30.2149 109.733 30.994 110.072 31.3686C110.303 31.6233 110.31 31.6233 110.495 31.8518C112.005 33.7246 114.194 36.0543 115.616 37.8672L122.613 45.8266ZM131.037 31.7656C132.282 31.5783 133.218 32.0952 134.185 32.5147C137.068 33.7899 140.062 34.8053 143.129 35.5487C146.526 36.3764 151.496 36.3727 151.198 39.4741C150.749 44.1411 138.155 39.8261 135.992 38.8897C134.883 38.4066 131.362 36.8821 130.562 36.3128C128.267 34.6684 128.663 32.099 131.007 31.7469L131.037 31.7656Z" fill="url(#paint0_linear_284_450)"/>
<path d="M122.382 75.2082C122.696 75.2211 123.008 75.1605 123.295 75.0312C123.582 74.9019 123.835 74.7074 124.035 74.4627C124.467 73.9164 124.688 73.2305 124.658 72.5319C124.695 71.8108 124.48 71.0995 124.05 70.5229C123.848 70.2762 123.592 70.0804 123.303 69.951C123.013 69.8216 122.698 69.7622 122.382 69.7774C122.058 69.7662 121.736 69.8272 121.438 69.956C121.14 70.0849 120.874 70.2784 120.658 70.5229C120.198 71.0753 119.961 71.7838 119.996 72.5059C119.964 73.2196 120.201 73.9189 120.658 74.4627C120.874 74.7072 121.14 74.9008 121.438 75.0296C121.736 75.1584 122.058 75.2194 122.382 75.2082ZM124.157 64.5591C125.387 64.5471 126.594 64.9023 127.626 65.5804C128.688 66.2824 129.541 67.2644 130.093 68.4207C130.711 69.7076 131.021 71.1236 130.999 72.5543C131.02 73.9481 130.716 75.3273 130.111 76.5799C129.564 77.7264 128.717 78.6996 127.663 79.394C126.603 80.0804 125.367 80.4356 124.109 80.4153C123.331 80.4326 122.559 80.2743 121.848 79.9519C121.138 79.6296 120.508 79.1513 120.003 78.5516V84.6422H113.669V64.9393H120.003V66.4303C120.518 65.8294 121.156 65.3507 121.874 65.0279C122.592 64.7052 123.371 64.5464 124.157 64.5628V64.5591ZM105.21 64.9318H111.544V80.0538H105.222V78.123C104.696 78.8354 104.022 79.422 103.248 79.8413C102.492 80.2361 101.653 80.437 100.803 80.4265C99.0031 80.4265 97.6123 79.8898 96.6303 78.8163C95.6483 77.7428 95.1573 76.2146 95.1573 74.2316V64.9132H101.491V72.9867C101.453 73.5211 101.609 74.0511 101.929 74.4776C102.089 74.6516 102.285 74.7874 102.503 74.8751C102.72 74.9628 102.955 75.0002 103.189 74.9846C103.469 74.9883 103.746 74.9264 103.998 74.8035C104.251 74.6806 104.472 74.5002 104.643 74.2764C105.046 73.7629 105.254 73.1202 105.229 72.4649L105.21 64.9318ZM84.9569 75.1486C85.2705 75.1571 85.582 75.0945 85.8687 74.9656C86.1554 74.8366 86.41 74.6444 86.614 74.4031C87.0623 73.8547 87.2933 73.1573 87.2621 72.4462C87.2863 71.7449 87.0498 71.0599 86.5992 70.5266C86.3899 70.2881 86.133 70.0972 85.8454 69.9665C85.5579 69.8358 85.2463 69.7682 84.9311 69.7682C84.6159 69.7682 84.3043 69.8358 84.0167 69.9665C83.7292 70.0972 83.4723 70.2881 83.2629 70.5266C82.8116 71.0522 82.5747 71.7317 82.6001 72.4276C82.5698 73.1475 82.8107 73.8522 83.274 74.3994C83.4837 74.6442 83.7443 74.839 84.0372 74.9698C84.33 75.1007 84.6479 75.1642 84.9679 75.156L84.9569 75.1486ZM84.9385 80.4265C83.3857 80.4503 81.85 80.0962 80.4606 79.394C79.1821 78.7492 78.1041 77.76 77.3452 76.5351C76.6107 75.3083 76.2223 73.9012 76.2223 72.4667C76.2223 71.0322 76.6107 69.6251 77.3452 68.3983C78.1093 67.1789 79.1929 66.1982 80.4753 65.5655C81.8715 64.868 83.4111 64.5155 84.9679 64.5367C86.5157 64.5109 88.0472 64.8597 89.4348 65.5543C90.7021 66.191 91.774 67.1652 92.5354 68.3722C93.2826 69.585 93.6663 70.9911 93.6401 72.4201C93.666 73.8655 93.2827 75.2882 92.5354 76.5202C91.7764 77.745 90.6985 78.7343 89.42 79.3791C88.0308 80.087 86.4937 80.4463 84.9385 80.4265ZM74.5244 64.6821C74.9385 64.6785 75.3523 64.7084 75.7617 64.7716L75.5224 70.5378C74.9091 70.3668 74.2767 70.2766 73.6406 70.2694C73.249 70.2611 72.8613 70.3493 72.511 70.5266C72.1607 70.7039 71.8583 70.9649 71.63 71.287C71.0874 72.061 70.8165 72.9966 70.8603 73.9446V80.0538H64.5265V64.9393H70.8603V67.2465C71.2459 66.4738 71.8154 65.8103 72.5175 65.3158C73.108 64.9032 73.8069 64.6787 74.5244 64.6709V64.6821ZM54.639 80.9372C55.2957 80.9721 55.9535 80.8991 56.5871 80.721C56.7507 80.6713 56.8933 80.5676 56.9921 80.4264C57.0908 80.2853 57.1401 80.1147 57.1321 79.942C57.1321 79.7307 56.959 79.5742 56.6128 79.4723C56.0869 79.3567 55.5488 79.3079 55.011 79.3269H52.8899C52.7467 79.5002 52.6639 79.7163 52.6542 79.942C52.6425 80.1167 52.6897 80.2903 52.788 80.4345C52.8863 80.5787 53.0299 80.6849 53.1955 80.7359C53.666 80.8832 54.158 80.9475 54.6501 80.926L54.639 80.9372ZM54.639 68.4356C54.2773 68.414 53.9213 68.5341 53.6448 68.771C53.52 68.8945 53.4227 69.0435 53.3592 69.208C53.2957 69.3725 53.2675 69.5489 53.2765 69.7252C53.2579 70.1088 53.3903 70.4841 53.6448 70.7689C53.7756 70.8979 53.9316 70.9977 54.1029 71.0619C54.2741 71.1261 54.4568 71.1532 54.639 71.1416C54.8234 71.1524 55.0081 71.1249 55.1816 71.0608C55.3551 70.9967 55.5138 70.8974 55.648 70.7689C55.7759 70.6292 55.8745 70.4646 55.9378 70.2853C56.0011 70.1059 56.0278 69.9154 56.0163 69.7252C56.0251 69.5511 55.9967 69.3771 55.9332 69.215C55.8697 69.0529 55.7724 68.9066 55.648 68.7859C55.3741 68.5394 55.0164 68.4098 54.6501 68.4244L54.639 68.4356ZM55.5081 75.8269C58.2798 75.7922 60.2536 76.1276 61.4295 76.8333C61.9903 77.1536 62.452 77.6255 62.7629 78.1962C63.0738 78.767 63.2216 79.414 63.1897 80.065C63.1897 81.6578 62.4263 82.8791 60.8993 83.729C59.3722 84.5788 57.1333 85.0025 54.1824 85C51.7446 85 49.9377 84.6919 48.7618 84.0756C48.2219 83.8299 47.7662 83.4273 47.4528 82.9189C47.1394 82.4105 46.9824 81.8194 47.0016 81.2204C47.0016 80.1991 47.5466 79.3568 48.644 78.6448C48.1997 78.4111 47.8315 78.0526 47.5834 77.6124C47.3542 77.1887 47.2363 76.7125 47.2409 76.2295C47.2348 75.6762 47.4067 75.1358 47.7307 74.6901C48.0754 74.215 48.5129 73.8167 49.0159 73.5197C48.4398 73.0672 47.9765 72.4844 47.6632 71.8179C47.3499 71.1514 47.1953 70.4199 47.2118 69.682C47.2282 68.9442 47.4153 68.2205 47.7581 67.569C48.1008 66.9175 48.5896 66.3565 49.1853 65.9308C50.5036 65.0014 52.3191 64.5367 54.6317 64.5367C55.732 64.4914 56.8305 64.6648 57.8649 65.0474L62.0003 64L62.9541 67.541L61.2822 67.6491C61.5498 67.9372 61.7699 68.2669 61.934 68.6257C62.0967 68.9756 62.1821 69.3572 62.1844 69.7439C62.1998 70.5024 62.0244 71.2523 61.6746 71.9233C61.3248 72.5943 60.8121 73.1641 60.1848 73.5793C58.8493 74.5261 57.0167 74.9995 54.6869 74.9995C54.0714 75.0084 53.456 74.9722 52.8457 74.8914C52.7433 75.0416 52.6881 75.2195 52.6873 75.402C52.6831 75.4833 52.7053 75.5637 52.7506 75.631C52.7958 75.6983 52.8615 75.7488 52.9377 75.7748C53.193 75.8382 53.4557 75.8658 53.7184 75.8568L55.5081 75.8269Z" fill="#E56E2B"/>
<defs>
<linearGradient id="paint0_linear_284_450" x1="89" y1="0" x2="89" y2="54" gradientUnits="userSpaceOnUse">
<stop stop-color="#FFCD00"/>
<stop offset="1" stop-color="#E26430"/>
</linearGradient>
</defs>
</svg>
