<svg width="63" height="60" viewBox="0 0 63 60" fill="none" xmlns="http://www.w3.org/2000/svg">
<path d="M54.4999 30.5034C54.498 43.1922 44.1892 53.4999 31.4999 53.4999C18.8096 53.4999 8.5 43.1903 8.5 30.4999C8.5 17.8096 18.8096 7.5 31.4999 7.5H32.7869L32.75 7.53378C43.191 8.09397 51.8035 15.6272 53.9766 25.5675L53.9772 25.5698C54.0618 25.9661 53.9863 26.3805 53.7655 26.7213M54.4999 30.5034L52.8015 27.386L52.697 26.897L52.8016 27.386C53.1988 27.3011 53.5453 27.0615 53.7655 26.7213M54.4999 30.5034C54.5047 30.0973 54.3471 29.7059 54.0618 29.4163L54.0614 29.416C53.7754 29.1263 53.3852 28.9627 52.9772 28.9627C52.5697 28.9627 52.1791 29.1262 51.893 29.416L51.8927 29.4164C51.6074 29.7059 51.4498 30.0973 51.4546 30.5033C51.4537 36.0389 49.2111 41.0499 45.5798 44.6619C43.0606 37.4719 37.739 32.5568 31.4998 32.5568C25.2606 32.5568 19.9395 37.4722 17.4199 44.6618C13.7877 41.0485 11.545 36.0365 11.545 30.4999C11.545 19.4677 20.4673 10.5454 31.4995 10.5454C41.0598 10.5454 49.0266 17.2512 50.9859 26.2117L54.4999 30.5034ZM53.7655 26.7213L53.3459 26.4494L53.7657 26.721C53.7656 26.7211 53.7655 26.7212 53.7655 26.7213ZM31.4999 15.1704C27.2819 15.1704 23.8411 18.6113 23.8411 22.8293C23.8411 27.0473 27.2819 30.4882 31.4999 30.4882C35.718 30.4882 39.1588 27.0473 39.1588 22.8293C39.1588 18.6113 35.718 15.1704 31.4999 15.1704ZM31.4999 18.2157C34.0602 18.2157 36.1136 20.2691 36.1136 22.8293C36.1136 25.3896 34.0602 27.443 31.4999 27.443C28.9397 27.443 26.8863 25.3896 26.8863 22.8293C26.8863 20.2691 28.9397 18.2157 31.4999 18.2157ZM31.4999 35.602C36.3284 35.602 40.9873 39.7502 43.0513 46.7762C39.7922 49.0926 35.8095 50.4546 31.4999 50.4546C27.1904 50.4546 23.2074 49.0925 19.9487 46.7762C22.013 39.7505 26.6719 35.602 31.4999 35.602Z" fill="#FFFFFF" stroke="#FFFFFF"/>
</svg>
