<svg width="60" height="60" viewBox="0 0 60 60" fill="none" xmlns="http://www.w3.org/2000/svg">
<path d="M10.7497 51C13.1241 51 14.3532 49.6612 15.2497 48.6856C16.0191 47.8411 16.3647 47.4999 17.1694 47.4999C17.9741 47.4999 18.3195 47.8411 19.0937 48.6856C19.9902 49.6612 21.219 51 23.5934 51C25.9679 51 27.1927 49.6612 28.0889 48.6813C28.8589 47.8411 29.2045 47.4999 29.9915 47.4999C30.7785 47.4999 31.1373 47.8411 31.9069 48.6813C32.8034 49.6612 34.0279 51 36.4023 51C38.7771 51 40.0147 49.6612 40.9244 48.6813C41.694 47.8411 42.0396 47.4999 42.8397 47.4999C43.6399 47.4999 43.9855 47.8411 44.7551 48.6813C45.6297 49.6612 46.8761 51 49.2506 51H49.2509C49.8756 51 50.4534 50.6665 50.7657 50.1251C51.0781 49.5834 51.0781 48.9163 50.7657 48.3749C50.4534 47.8335 49.8756 47.5 49.2509 47.5C48.4507 47.5 48.1051 47.1588 47.3355 46.3187C46.5939 45.3885 45.6147 44.6765 44.5016 44.2582L47.4185 33.9816C47.5335 33.5757 47.4984 33.1421 47.3191 32.76C47.14 32.3782 46.8289 32.074 46.4433 31.9034L40.4869 29.2523V17.75C40.4869 17.2858 40.3027 16.8408 39.9747 16.5125C39.6465 16.1844 39.2018 16.0001 38.7378 16.0001H35.2391V10.7502C35.2391 10.286 35.0549 9.84074 34.727 9.51269C34.3987 9.18433 33.954 9 33.49 9H26.4927C26.0288 9 25.584 9.18433 25.2558 9.51269C24.9278 9.84075 24.7436 10.286 24.7436 10.7502V16.0001H21.2449C20.781 16.0001 20.3362 16.1844 20.008 16.5125C19.68 16.8408 19.4958 17.2858 19.4958 17.75V29.2523L13.5351 31.9034C13.1502 32.0749 12.8402 32.3794 12.6618 32.7612C12.4833 33.1429 12.4488 33.5763 12.5641 33.9816L15.503 44.2581C14.3923 44.6792 13.414 45.3891 12.6691 46.3143C11.8995 47.1588 11.5539 47.4999 10.7494 47.4999C10.1244 47.4999 9.54696 47.8335 9.23428 48.3749C8.92191 48.9162 8.92191 49.5834 9.23428 50.125C9.54695 50.6664 10.1244 50.9999 10.7494 50.9999L10.7497 51ZM40.802 44.3936C39.8432 44.8422 38.9973 45.4999 38.3265 46.3187C37.5569 47.1588 37.2158 47.5 36.4157 47.5C35.6156 47.5 35.2699 47.1588 34.5003 46.3187H34.5C33.7716 45.4132 32.821 44.7123 31.7405 44.2844V29.1907L43.6356 34.48L40.802 44.3936ZM28.2424 12.5H31.741V16.0001H28.2424V12.5ZM22.9943 19.5001H36.9885V27.6946L30.6996 24.9035C30.2485 24.6975 29.7299 24.6975 29.2784 24.9035L22.9941 27.6946L22.9943 19.5001ZM28.2424 29.1907V44.2977C27.172 44.724 26.2302 45.4204 25.5091 46.3188C24.7438 47.159 24.3939 47.5002 23.5934 47.5002C22.7933 47.5002 22.4434 47.159 21.6692 46.3145H21.6695C20.9947 45.4924 20.1424 44.8342 19.1766 44.3895L16.3473 34.4801L28.2424 29.1907Z" fill="#2F2F2F"/>
</svg>
