<?xml version="1.0" encoding="utf-8"?><svg xmlns="http://www.w3.org/2000/svg" xmlns:xlink="http://www.w3.org/1999/xlink"><symbol viewBox="0 0 60 60" id="avia" xmlns="http://www.w3.org/2000/svg"><path fill-rule="evenodd" clip-rule="evenodd" d="M25.522 2.654C26.342 1.224 27.625 0 29.5 0s3.158 1.224 3.978 2.654c.815 1.42 1.35 3.309 1.718 5.338.694 3.82.876 8.602.901 12.893l5.403 1.722v-4.535c0-.832.672-1.506 1.5-1.506s1.5.674 1.5 1.506v5.491l4.5 1.435v-4.215c0-.832.672-1.506 1.5-1.506.829 0 1.5.674 1.5 1.506v5.17l1.744.557A1.806 1.806 0 0155 28.233v4.547c0 1.11-.989 1.959-2.082 1.785l-16.875-2.69-.512 15.403 5.05 2.535a1.8 1.8 0 01.805.809l1.239 2.486c.598 1.202-.272 2.615-1.61 2.615h-7.712l-2.305 3.472a1.796 1.796 0 01-2.996 0l-2.305-3.472h-7.712c-1.338 0-2.208-1.413-1.61-2.615l1.239-2.486c.174-.35.456-.633.805-.809l5.05-2.535-.512-15.403-16.875 2.69A1.803 1.803 0 014 32.78v-4.547c0-.788.508-1.485 1.255-1.723L7 25.954v-5.17c0-.833.671-1.507 1.5-1.507.828 0 1.5.674 1.5 1.506v4.215l4.5-1.435v-5.49c0-.833.672-1.507 1.5-1.507s1.5.674 1.5 1.506v4.535l5.403-1.722c.025-4.29.207-9.073.901-12.893.369-2.03.903-3.919 1.718-5.338zm1.234 5.878c-.69 3.796-.85 8.744-.856 13.238 0 .793-.514 1.483-1.255 1.72L7 29.112v2.255l16.828-2.682a1.802 1.802 0 012.082 1.724l.582 17.538a1.808 1.808 0 01-.994 1.677l-5.381 2.701-.19.384h6.412a1.8 1.8 0 011.497.804L29.5 56.02l1.663-2.505a1.799 1.799 0 011.498-.804h6.412l-.191-.384-5.38-2.7a1.808 1.808 0 01-.994-1.678l.582-17.538a1.802 1.802 0 012.081-1.724L52 31.368v-2.255L34.356 23.49a1.804 1.804 0 01-1.256-1.72c-.005-4.493-.166-9.441-.855-13.237-.348-1.911-.807-3.4-1.366-4.374-.552-.963-1.022-1.146-1.379-1.146s-.826.183-1.378 1.146c-.56.974-1.019 2.463-1.366 4.374z"/></symbol><symbol viewBox="0 0 60 60" id="book" xmlns="http://www.w3.org/2000/svg"><path d="M53 19.624a1.452 1.452 0 00-.437-1.017L34.294.437A1.456 1.456 0 0033.275 0H15.007c-2.124 0-4.16.843-5.662 2.342A7.991 7.991 0 007 7.995v42.01a7.99 7.99 0 002.345 5.653A8.012 8.012 0 0015.007 58h29.986c2.124 0 4.16-.843 5.662-2.342A7.991 7.991 0 0053 50.005v-30.38zM34.876 5.088l13.029 13.01h-7.206a5.827 5.827 0 01-4.117-1.703 5.81 5.81 0 01-1.706-4.112V5.088zm15.212 44.917c0 1.35-.536 2.643-1.492 3.598a5.098 5.098 0 01-3.602 1.49H15.006a5.099 5.099 0 01-3.603-1.49 5.084 5.084 0 01-1.492-3.598V7.995c0-1.35.536-2.643 1.492-3.597a5.098 5.098 0 013.603-1.49h16.958v9.375c0 2.314.92 4.532 2.558 6.168a8.741 8.741 0 006.176 2.554h9.39v29z"/><rect x="14" y="27" width="32" height="3" rx="1.5"/><rect x="14" y="39" width="32" height="3" rx="1.5"/><rect x="14" y="33" width="32" height="3" rx="1.5"/></symbol><symbol viewBox="0 0 40 40" id="calendar" xmlns="http://www.w3.org/2000/svg"><path d="M27 12H13a2 2 0 00-2 2v14a2 2 0 002 2h14a2 2 0 002-2V14a2 2 0 00-2-2zm-3-2v4m-8-4v4m-5 4h18"/></symbol><symbol viewBox="0 0 40 40" id="close" xmlns="http://www.w3.org/2000/svg"><path d="M25 25L15 15m10 0L15 25"/></symbol><symbol viewBox="0 0 40 40" id="facebook" xmlns="http://www.w3.org/2000/svg"><path d="M31.484 5H8.516A3.52 3.52 0 005 8.516v22.968A3.52 3.52 0 008.516 35h22.968A3.52 3.52 0 0035 31.484V8.516A3.52 3.52 0 0031.484 5zm1.172 26.484c0 .646-.526 1.172-1.172 1.172h-8.008v-11.21h3.438a1.172 1.172 0 100-2.344h-3.438v-1.407a3.441 3.441 0 013.438-3.437 1.172 1.172 0 100-2.344 5.788 5.788 0 00-5.781 5.781v1.407h-2.285a1.172 1.172 0 100 2.343h2.285v11.211H8.516a1.173 1.173 0 01-1.172-1.172V8.516c0-.647.525-1.172 1.172-1.172h22.968c.646 0 1.172.525 1.172 1.172v22.968z"/></symbol><symbol viewBox="0 0 40 40" id="instagram" xmlns="http://www.w3.org/2000/svg"><path d="M26.285 5h-12.57C8.909 5 5 8.91 5 13.714v12.571C5 31.091 8.91 35 13.714 35h12.571C31.091 35 35 31.09 35 26.285v-12.57C35 8.909 31.09 5 26.285 5zm6.371 21.285a6.378 6.378 0 01-6.37 6.371H13.713a6.378 6.378 0 01-6.37-6.37V13.713a6.378 6.378 0 016.37-6.37h12.571a6.378 6.378 0 016.371 6.37v12.571z"/><path d="M20 11.914c-4.459 0-8.086 3.627-8.086 8.086 0 4.459 3.627 8.086 8.086 8.086 4.459 0 8.086-3.627 8.086-8.086 0-4.459-3.627-8.086-8.086-8.086zm0 13.828A5.749 5.749 0 0114.258 20 5.749 5.749 0 0120 14.258 5.749 5.749 0 0125.742 20 5.749 5.749 0 0120 25.742zm8.203-12.773a1.172 1.172 0 100-2.344 1.172 1.172 0 000 2.344z"/></symbol><symbol viewBox="0 0 40 40" id="mail" xmlns="http://www.w3.org/2000/svg"><path d="M12 12h16c1.1 0 2 .9 2 2v12c0 1.1-.9 2-2 2H12c-1.1 0-2-.9-2-2V14c0-1.1.9-2 2-2z"/><path d="M30 14l-10 7-10-7"/></symbol><symbol viewBox="0 0 40 40" id="map-pin" xmlns="http://www.w3.org/2000/svg"><path d="M29 18c0 7-9 13-9 13s-9-6-9-13a9 9 0 0118 0z"/><path d="M20 21a3 3 0 100-6 3 3 0 000 6z"/></symbol><symbol viewBox="0 0 40 40" id="message-square" xmlns="http://www.w3.org/2000/svg"><path d="M29 23a2 2 0 01-2 2H15l-4 4V13a2 2 0 012-2h14a2 2 0 012 2v10z"/></symbol><symbol viewBox="0 0 40 40" id="next" xmlns="http://www.w3.org/2000/svg"><path d="M15.55 29.997a.54.54 0 01-.325-.162.777.777 0 01-.198-.362.93.93 0 01-.002-.438.782.782 0 01.195-.365l8.249-8.677-8.25-8.668a.746.746 0 01-.145-.229.929.929 0 01-.039-.573.822.822 0 01.113-.256.648.648 0 01.183-.183.488.488 0 01.458-.049.58.58 0 01.205.142l8.792 9.246c.067.07.121.159.158.258a.909.909 0 010 .633.753.753 0 01-.158.257l-8.792 9.247a.58.58 0 01-.207.145.486.486 0 01-.236.034z"/></symbol><symbol viewBox="0 0 60 60" id="personal" xmlns="http://www.w3.org/2000/svg"><path d="M29.5 7A22.5 22.5 0 1052 29.5a1 1 0 00-1-1 1 1 0 00-.73.31 1.001 1.001 0 00-.3.73 20.39 20.39 0 01-6.6 15.07C41 37.09 35.65 32.06 29.5 32.06c-6.15 0-11.5 5.03-13.86 12.51a20.46 20.46 0 1133.83-19.46 1.001 1.001 0 00.45.64 1 1 0 001.57-1.08A22.52 22.52 0 0029.5 7zm0 7.67a7.16 7.16 0 107.16 7.16 7.18 7.18 0 00-7.16-7.16zm0 2a5.11 5.11 0 11-5.11 5.11 5.09 5.09 0 015.11-5.06v-.05zm0 17.38c5.22 0 10.08 4.53 12.13 11.88a20.52 20.52 0 01-24.26 0c2.05-7.3 6.91-11.83 12.13-11.83v-.05z"/></symbol><symbol viewBox="0 0 40 40" id="phone" xmlns="http://www.w3.org/2000/svg"><path d="M29.888 24.92v3a2 2 0 01-2.18 2 19.791 19.791 0 01-8.63-3.07 19.5 19.5 0 01-6-6 19.791 19.791 0 01-3.07-8.67 2.001 2.001 0 011.99-2.18h3a2 2 0 012 1.72c.127.96.362 1.903.7 2.81a2 2 0 01-.45 2.11l-1.27 1.27a16.001 16.001 0 006 6l1.27-1.27a2 2 0 012.11-.45c.907.339 1.85.573 2.81.7a2 2 0 011.72 2.03z"/></symbol><symbol viewBox="0 0 40 40" id="prev" xmlns="http://www.w3.org/2000/svg"><path d="M24.45 29.997a.54.54 0 00.325-.162.777.777 0 00.198-.362.93.93 0 00.002-.438.782.782 0 00-.195-.365l-8.249-8.677 8.25-8.668a.746.746 0 00.145-.229.929.929 0 00.039-.573.822.822 0 00-.113-.256.648.648 0 00-.183-.183.488.488 0 00-.458-.049.58.58 0 00-.205.142l-8.792 9.246a.754.754 0 00-.158.258.909.909 0 000 .633c.037.1.09.187.158.257l8.792 9.247a.58.58 0 00.207.145.48.48 0 00.236.034z"/></symbol><symbol viewBox="0 0 60 60" id="sea" xmlns="http://www.w3.org/2000/svg"><path d="M10.75 51c2.374 0 3.603-1.339 4.5-2.314.77-.845 1.115-1.186 1.92-1.186.804 0 1.15.341 1.924 1.186.896.975 2.125 2.314 4.5 2.314 2.374 0 3.599-1.339 4.495-2.319.77-.84 1.116-1.181 1.902-1.181.788 0 1.146.341 1.916 1.181.896.98 2.12 2.319 4.495 2.319s3.613-1.339 4.522-2.319c.77-.84 1.116-1.181 1.916-1.181.8 0 1.145.341 1.915 1.181.875.98 2.121 2.319 4.496 2.319a1.75 1.75 0 000-3.5c-.8 0-1.146-.341-1.915-1.181a6.589 6.589 0 00-2.834-2.06l2.916-10.277a1.751 1.751 0 00-.975-2.079l-5.956-2.65V17.75a1.75 1.75 0 00-1.75-1.75H35.24v-5.25A1.75 1.75 0 0033.49 9h-6.997a1.749 1.749 0 00-1.75 1.75V16h-3.498a1.75 1.75 0 00-1.75 1.75v11.502l-5.96 2.651a1.75 1.75 0 00-.97 2.079l2.938 10.276a6.678 6.678 0 00-2.834 2.056c-.77.845-1.115 1.186-1.92 1.186a1.75 1.75 0 000 3.5zm30.052-6.606a7.077 7.077 0 00-2.475 1.925c-.77.84-1.111 1.181-1.911 1.181s-1.146-.341-1.916-1.181a6.714 6.714 0 00-2.76-2.035V29.191l11.896 5.289-2.834 9.914zM28.242 12.5h3.499V16h-3.499v-3.5zm-5.248 7H36.99v8.195l-6.29-2.791a1.711 1.711 0 00-1.42 0l-6.285 2.79V19.5zm5.248 9.69v15.108a6.67 6.67 0 00-2.733 2.02c-.765.841-1.115 1.182-1.916 1.182-.8 0-1.15-.341-1.924-1.185a7.028 7.028 0 00-2.492-1.925l-2.83-9.91 11.895-5.29z"/></symbol><symbol viewBox="0 0 40 40" id="search" xmlns="http://www.w3.org/2000/svg"><path d="M19 27a8 8 0 100-16 8 8 0 000 16zm10 2l-4.35-4.35"/></symbol><symbol viewBox="0 0 60 60" id="train" xmlns="http://www.w3.org/2000/svg"><path fill-rule="evenodd" clip-rule="evenodd" d="M14.001 13.947v23.262a7.164 7.164 0 005.702 7.01l-5.402 8.102a1.79 1.79 0 002.978 1.985l1.855-2.782h21.942l1.855 2.782a1.79 1.79 0 002.978-1.985l-5.402-8.103a7.164 7.164 0 005.702-7.009V13.947c0-2.102-1.234-4.129-3.545-5.705C39.828 6.308 35.264 5 30.104 5c-5.159 0-9.723 1.308-12.56 3.242C15.235 9.818 14 11.845 14 13.947h.001zm9.905 30.42l-2.386 3.579h17.17l-2.385-3.58h-12.4zM42.63 33.63H17.58v3.58a3.58 3.58 0 003.579 3.578h17.894a3.581 3.581 0 003.579-3.579V33.63zm-19.683 5.368h3.58a1.79 1.79 0 000-3.579h-3.58a1.79 1.79 0 000 3.58zm10.737 0h3.579a1.79 1.79 0 000-3.579h-3.58a1.79 1.79 0 000 3.58zM17.579 15.736v14.315H42.63V15.736H17.58zm.824-3.578a7.067 7.067 0 011.158-.96c2.376-1.619 6.222-2.62 10.544-2.62 4.321 0 8.168 1.001 10.544 2.62.445.305.84.623 1.158.96H18.403z"/></symbol><symbol viewBox="0 0 40 40" id="user" xmlns="http://www.w3.org/2000/svg"><path d="M28 29v-2a4 4 0 00-4-4h-8a4 4 0 00-4 4v2m8-10a4 4 0 100-8 4 4 0 000 8z"/></symbol></svg>