<svg width="60" height="60" viewBox="0 0 60 60" fill="none" xmlns="http://www.w3.org/2000/svg">
<path fill-rule="evenodd" clip-rule="evenodd" d="M14.001 13.947V37.2091C14.001 40.6607 16.4495 43.5452 19.7031 44.2181L14.3014 52.3208C13.7534 53.143 13.9756 54.2546 14.7977 54.8022C15.6199 55.3502 16.7316 55.128 17.2791 54.3058L19.1339 51.5241H41.0764L42.9312 54.3058C43.4787 55.128 44.5904 55.3502 45.4126 54.8022C46.2347 54.2547 46.4569 53.143 45.9089 52.3208L40.5072 44.2181C43.7604 43.5453 46.2093 40.6608 46.2093 37.2091V13.947C46.2093 11.8451 44.9752 9.81837 42.6645 8.24232C39.8282 6.30849 35.2641 5 30.1046 5C24.9451 5 20.3809 6.30849 17.5448 8.24232C15.234 9.81837 14 11.845 14 13.947H14.001ZM23.9057 44.3666L21.5201 47.9456H38.6908L36.3052 44.3666H23.9057ZM42.6305 33.6303H17.579V37.2093C17.579 39.1843 19.1825 40.7883 21.158 40.7883H39.0519C41.0269 40.7883 42.6309 39.1843 42.6309 37.2093V33.6303H42.6305ZM22.9471 38.9982H26.5261C27.5139 38.9982 28.3156 38.1965 28.3156 37.2087C28.3156 36.221 27.5139 35.4193 26.5261 35.4193H22.9471C21.9594 35.4193 21.1576 36.221 21.1576 37.2087C21.1576 38.1965 21.9594 38.9982 22.9471 38.9982ZM33.6835 38.9982H37.2625C38.2502 38.9982 39.052 38.1965 39.052 37.2087C39.052 36.221 38.2502 35.4193 37.2625 35.4193H33.6835C32.6958 35.4193 31.894 36.221 31.894 37.2087C31.894 38.1965 32.6957 38.9982 33.6835 38.9982ZM17.579 15.7361V30.0513H42.6305V15.7361H17.579ZM18.4028 12.1584C18.7206 11.8214 19.1155 11.5027 19.5611 11.1986C21.9368 9.57928 25.7833 8.57818 30.1049 8.57818C34.426 8.57818 38.273 9.57922 40.6486 11.1986C41.0942 11.5027 41.4891 11.8214 41.8069 12.1576C41.8057 12.1572 18.4042 12.1572 18.4042 12.1572L18.4028 12.1584Z" fill="#2F2F2F"/>
</svg>
