<svg width="178" height="61" viewBox="0 0 178 61" fill="none" xmlns="http://www.w3.org/2000/svg">
<g clip-path="url(#clip0_281_14)">
<path fill-rule="evenodd" clip-rule="evenodd" d="M61.7372 34.4994C61.312 34.1991 61.244 33.4884 61.0399 32.689C58.9988 24.6521 56.5623 15.9384 54.381 7.88461C54.3172 7.63928 53.5305 4.23417 53.2371 4.07766C51.9019 3.83656 47.4712 4.04805 45.7746 4.04805C37.1937 4.04805 38.3248 3.3628 37.6444 5.95153L34.0471 19.3647C33.6219 21.0186 30.2202 34.1483 29.846 34.5375C29.4463 33.4715 29.0678 31.9741 28.7149 30.7982C27.7879 27.7188 20.7421 4.53027 20.4359 4.07766H2.53128e-06C-0.0425191 4.72485 3.93751 16.1288 4.49454 17.77C5.84673 21.7884 17.9144 58.1448 18.3353 58.6651H37.8273C38.2185 58.0306 44.1333 35.4765 45.1963 31.7034L45.5407 30.3456C45.5613 30.2549 45.5957 30.1679 45.6428 30.0876C46.0467 29.3093 50.7751 48.1367 51.6383 51.3896L53.4455 58.1279C53.4632 58.2161 53.4963 58.3006 53.5433 58.3774C53.5744 58.4605 53.6238 58.5357 53.6879 58.5974C53.8792 58.6862 72.0402 58.8216 73.1755 58.6312C73.6518 58.3774 77.2406 46.1825 78.023 44.5921C78.3972 44.8078 79.6601 46.8551 79.9535 47.2569C90.3245 61.5922 113.052 65.6699 127.497 54.9258C127.922 54.617 128.492 54.0502 128.896 53.9191C129.861 54.4478 130.771 55.0823 131.872 55.6533C139.45 59.6633 151.466 61.258 159.728 60.0863C169.934 58.6312 178.863 52.1721 177.953 40.7978C176.648 24.7663 153.176 26.6909 149.298 22.4906C149.079 22.2795 148.913 22.0193 148.816 21.7317C148.718 21.4441 148.691 21.1374 148.737 20.8373C148.783 20.5371 148.9 20.2522 149.079 20.0064C149.258 19.7605 149.493 19.5608 149.766 19.4239C152.555 18.0449 158.95 19.3351 161.82 20.401C162.942 20.7908 164.031 21.2674 165.078 21.8265L168.075 23.6242C168.471 23.3028 176.057 12.8421 176.21 12.4233C173.744 10.2534 170.189 8.42605 167.063 7.3178C160.013 4.82214 149.251 4.38645 142.095 6.77214C135.342 9.02246 134.105 11.8481 133.165 12.2711C132.918 11.9792 132.634 11.497 132.408 11.1882C123.759 -0.820609 106.232 -2.57603 93.4031 3.21899C92.0637 3.82387 92.204 4.09882 90.4606 4.08613C84.414 4.04806 77.9635 4.18764 72.0232 4.08613C70.7476 4.08613 71.1728 3.78157 70.3989 6.2011C68.613 11.81 66.9972 17.457 65.1942 23.1209C64.65 24.8128 61.9286 33.4335 61.7712 34.5205L61.7372 34.4994ZM126.88 51.7745C110.352 63.3899 94.4024 57.0661 85.4218 48.3609C82.2029 44.554 80.1406 41.0262 79.0733 35.7811C78.1702 31.4256 78.3327 26.918 79.547 22.6381C80.7614 18.3581 82.9921 14.4312 86.0511 11.1882C94.2025 2.63102 107.809 0.642952 119.265 4.50066C123.772 6.01921 128.909 9.93613 131.094 14.1915C131.094 14.1915 129.67 15.2955 129.147 15.6719C125.129 18.5525 120.642 21.5939 116.718 24.4914C115.893 25.1047 115.042 25.6715 114.234 26.2383L111.683 27.9303C111.781 27.2112 113.146 24.3687 113.52 23.5904C114.655 21.2132 116.216 18.1718 113.061 17.7023C111.917 17.5331 111.394 17.3808 110.743 18.0957C109.468 19.5085 107.673 21.7419 106.491 22.9601C105.883 23.5862 102.664 27.6131 102.175 27.7823C101.27 28.0868 97.9742 27.685 96.4434 28.108C95.0444 28.4971 93.6285 29.7534 93.8921 31.5342C94.2876 34.2245 97.9997 34.4952 100.27 34.4529C102.184 34.419 101.899 34.0299 102.575 34.8759L106.678 39.9053C106.946 40.2014 107.044 40.3283 107.354 40.7132C108.175 41.6818 110.293 44.3425 110.986 44.6132C111.679 44.8839 113.057 44.6132 113.652 44.3298C116.875 42.7943 111.692 35.9757 111.283 33.7549C111.798 34.1441 112.368 35.0239 112.75 35.4469C113.01 35.7345 113.018 35.7345 113.227 35.9926C114.928 38.1075 117.394 40.7386 118.997 42.7859L126.88 51.7745ZM136.371 35.8953C137.774 35.6838 138.829 36.2675 139.918 36.7413C143.167 38.1813 146.54 39.328 149.995 40.1675C153.822 41.1023 159.422 41.0981 159.086 44.6005C158.58 49.871 144.391 44.9981 141.954 43.9406C140.704 43.395 136.737 41.6734 135.835 41.0304C133.25 39.1735 133.697 36.2718 136.337 35.8741L136.371 35.8953Z" fill="url(#paint0_linear_281_14)"/>
</g>
<defs>
<linearGradient id="paint0_linear_281_14" x1="89.0084" y1="0.0220795" x2="89.0084" y2="61.0048" gradientUnits="userSpaceOnUse">
<stop stop-color="#FFCD00"/>
<stop offset="1" stop-color="#E26430"/>
</linearGradient>
<clipPath id="clip0_281_14">
<rect width="178" height="61" fill="white"/>
</clipPath>
</defs>
</svg>
